<svg xmlns="http://www.w3.org/2000/svg" width="327.1" height="122.5" viewBox="0 0 327.1 122.5"><title>Scheldemonitor-logo-uitgewerkteversies_Logo - Final</title><path d="M142.9,54.6a7.6,7.6,0,0,1-3.6-2,3.2,3.2,0,0,1-.7-1.9,5.5,5.5,0,0,1,.8-2.9c.5-1,1-1.5,1.7-1.5a2.4,2.4,0,0,1,1.3.5l1.3.7a8.5,8.5,0,0,0,3.6,1.1,5.1,5.1,0,0,0,2.8-.8,3,3,0,0,0,1.2-2.7,4.8,4.8,0,0,0-.6-2.4,5.7,5.7,0,0,0-1.5-1.6l-2.7-1.6a17.4,17.4,0,0,1-5.7-4.7,11.3,11.3,0,0,1-1.8-6.7,9.5,9.5,0,0,1,3-7.4,12,12,0,0,1,8-2.6,16.4,16.4,0,0,1,3.7.5,8.2,8.2,0,0,1,3.1,1.4,2,2,0,0,1,.9,1.8,7.4,7.4,0,0,1-.6,2.8c-.4,1-.8,1.6-1.4,1.6l-1.6-.5a9.3,9.3,0,0,0-3.3-.7c-1.4,0-2.4.2-2.9.8a3.2,3.2,0,0,0-.8,2.1,4.2,4.2,0,0,0,1,2.9,15.8,15.8,0,0,0,3.2,2.2l1.2.7a14.8,14.8,0,0,1,5.2,4.5,10.9,10.9,0,0,1,1.6,6.3,12.5,12.5,0,0,1-1.2,5.4,10.4,10.4,0,0,1-3.8,4,12.2,12.2,0,0,1-6.3,1.5A17.5,17.5,0,0,1,142.9,54.6Z" fill="#0a7bc1"/><path d="M167.2,50.9c-2.2-3-3.3-7.8-3.3-14.3s1.2-10.9,3.5-13.9,5.9-4.6,10.7-4.6a21.4,21.4,0,0,1,4.5.5,2.2,2.2,0,0,1,1.6,2.3,7.8,7.8,0,0,1-.7,3.5c-.4,1.1-1,1.5-1.7,1.2a12.7,12.7,0,0,0-3.4-.5,5,5,0,0,0-4.6,2.9c-1,1.9-1.6,4.8-1.6,8.7s.6,6.8,1.6,8.7a5.1,5.1,0,0,0,4.9,2.9h1.7l1.7-.5h.5c.7,0,1.2.4,1.6,1.3a10.2,10.2,0,0,1,.5,3.4,2.5,2.5,0,0,1-.3,1.3,1.9,1.9,0,0,1-1.2.9,11.1,11.1,0,0,1-2.4.5,13.9,13.9,0,0,1-3,.3C173,55.4,169.4,53.9,167.2,50.9Z" fill="#0a7bc1"/><path d="M190.9,53.4V20.1c0-1.2,1-1.7,3-1.7h2.2c2,0,2.9.5,2.9,1.7V32.9h9V20.1c0-1.2,1-1.7,3-1.7h2.1c2,0,3,.5,3,1.7V53.4c0,1.1-1,1.7-3,1.7H211c-2,0-3-.6-3-1.7V39.8h-9V53.4c0,1.1-.9,1.7-2.9,1.7h-2.2C191.9,55.1,190.9,54.5,190.9,53.4Z" fill="#0a7bc1"/><path d="M223.6,54.5a2.5,2.5,0,0,1-.5-1.6V20.6a2.2,2.2,0,0,1,.5-1.6,2,2,0,0,1,1.4-.5h15.4a1.4,1.4,0,0,1,1.2.6,4.9,4.9,0,0,1,.3,2v1.6a4.9,4.9,0,0,1-.3,2,1.4,1.4,0,0,1-1.2.6h-9.2v7.6h8.2a1.1,1.1,0,0,1,1.1.6,3.5,3.5,0,0,1,.4,2v1.6a3.5,3.5,0,0,1-.4,2,1.1,1.1,0,0,1-1.1.6h-8.2v8.4h9.3a1.1,1.1,0,0,1,1.1.7,4.4,4.4,0,0,1,.3,1.9v1.7a4.4,4.4,0,0,1-.3,1.9,1.1,1.1,0,0,1-1.1.7H225A2,2,0,0,1,223.6,54.5Z" fill="#0a7bc1"/><path d="M249.4,54.5a2.5,2.5,0,0,1-.5-1.6V20.1c0-1.2,1-1.7,3-1.7H254c2,0,3.1.5,3.1,1.7v28h7.7a1.1,1.1,0,0,1,1.2.7,3.2,3.2,0,0,1,.4,1.9v1.7a3.2,3.2,0,0,1-.4,1.9,1.1,1.1,0,0,1-1.2.7H250.9A2.1,2.1,0,0,1,249.4,54.5Z" fill="#0a7bc1"/><path d="M273.7,54.5a2.1,2.1,0,0,1-.5-1.6V20.6c0-.8.1-1.3.5-1.6a1.8,1.8,0,0,1,1.4-.5H285c4.5,0,7.8,1.5,10,4.5s3.2,7.6,3.2,13.7-1.1,10.7-3.2,13.7S289.5,55,285,55h-9.9A1.8,1.8,0,0,1,273.7,54.5Zm11-6.4a4,4,0,0,0,4-2.5c.8-1.8,1.2-4.7,1.2-8.9s-.4-7.1-1.2-8.8a4.1,4.1,0,0,0-4-2.6h-3.3V48.1Z" fill="#0a7bc1"/><path d="M304.7,54.5a2.5,2.5,0,0,1-.5-1.6V20.6a2.2,2.2,0,0,1,.5-1.6,2.1,2.1,0,0,1,1.5-.5h15.3a1.3,1.3,0,0,1,1.2.6,4.9,4.9,0,0,1,.3,2v1.6a4.9,4.9,0,0,1-.3,2,1.3,1.3,0,0,1-1.2.6h-9.1v7.6h8.1a1.1,1.1,0,0,1,1.1.6,3.5,3.5,0,0,1,.4,2v1.6a3.5,3.5,0,0,1-.4,2,1.1,1.1,0,0,1-1.1.6h-8.1v8.4h9.2a1.1,1.1,0,0,1,1.1.7,4.4,4.4,0,0,1,.3,1.9v1.7a4.4,4.4,0,0,1-.3,1.9,1.1,1.1,0,0,1-1.1.7H306.2A2.1,2.1,0,0,1,304.7,54.5Z" fill="#0a7bc1"/><path d="M152.1,92.2a2.6,2.6,0,0,1-.9-.9l-3.8-7.2c-.2-.4-.5-.8-.7-1.3s-.3-.9-.4-1.2h-.2a18.9,18.9,0,0,1,.3,2.9v18a1.6,1.6,0,0,1-.7,1.3,6.7,6.7,0,0,1-2.3.3h-1.8a6,6,0,0,1-2.3-.3,1.4,1.4,0,0,1-.7-1.3V69.2a1.1,1.1,0,0,1,.7-1.2,4.3,4.3,0,0,1,2.3-.4h1.6a5.6,5.6,0,0,1,2,.3,2.3,2.3,0,0,1,1.1,1.1l6.5,12.3a12.8,12.8,0,0,1,1,2.5,8.1,8.1,0,0,1,.9-2.5L161.2,69a2,2,0,0,1,1.1-1.1,5.6,5.6,0,0,1,2-.3h1.6a4.3,4.3,0,0,1,2.3.4,1.1,1.1,0,0,1,.7,1.2v33.4a1.4,1.4,0,0,1-.7,1.3,6,6,0,0,1-2.3.3h-1.8a6.7,6.7,0,0,1-2.3-.3,1.6,1.6,0,0,1-.7-1.3v-18a10.6,10.6,0,0,1,.4-2.9h-.2l-1.2,2.5-3.8,7.2a2.6,2.6,0,0,1-.9.9,2.1,2.1,0,0,1-1.2.3h-.9A2.1,2.1,0,0,1,152.1,92.2Z" fill="#53ad51"/><path d="M173.7,85.9c0-12.4,4.6-18.6,13.7-18.6,4.4,0,7.8,1.5,10.1,4.5s3.5,7.7,3.5,14.1S199.8,97,197.5,100s-5.7,4.6-10.1,4.6C178.3,104.6,173.7,98.3,173.7,85.9Zm16.7,10.8a6.7,6.7,0,0,0,1.8-3.6,43,43,0,0,0,.5-7.2,42.5,42.5,0,0,0-.5-7.1,6.7,6.7,0,0,0-1.8-3.6,4.1,4.1,0,0,0-3-1.1,4.4,4.4,0,0,0-3,1.1,6.7,6.7,0,0,0-1.8,3.6,32.8,32.8,0,0,0-.6,7.1,32.8,32.8,0,0,0,.6,7.1,6.7,6.7,0,0,0,1.8,3.7,4.4,4.4,0,0,0,3,1A4,4,0,0,0,190.4,96.7Z" fill="#53ad51"/><path d="M205.7,102.6V69.2c0-1.1,1-1.6,3-1.6H210a4,4,0,0,1,1.7.3,1.6,1.6,0,0,1,1,1.1l9.4,17a36.6,36.6,0,0,1,1.8,4.1h.2a26.1,26.1,0,0,1-.4-4.1V69.2c0-1.1,1-1.6,3-1.6H228c2,0,3,.5,3,1.6v33.4c0,1.1-1,1.6-3,1.6h-1l-1.8-.2a2,2,0,0,1-1-1.2l-10-17.7a23.6,23.6,0,0,1-1.4-3.4l-.3.2a23.6,23.6,0,0,1,.5,3.5v17.2c0,1.1-1.1,1.6-3.1,1.6h-1.2C206.7,104.2,205.7,103.7,205.7,102.6Z" fill="#53ad51"/><path d="M236.4,102.6V69.2c0-1.1,1-1.7,3-1.7h2.2c2,0,3,.6,3,1.7v33.4c0,1.1-1,1.7-3,1.7h-2.2C237.4,104.3,236.4,103.7,236.4,102.6Z" fill="#53ad51"/><path d="M255,102.6V74.5h-5.7a1.3,1.3,0,0,1-1.2-.6,4.9,4.9,0,0,1-.3-2V70.3a4.9,4.9,0,0,1,.3-2,1.3,1.3,0,0,1,1.2-.6h19.8a1.4,1.4,0,0,1,1.2.6,4.9,4.9,0,0,1,.3,2v1.6a4.9,4.9,0,0,1-.3,2,1.4,1.4,0,0,1-1.2.6h-5.9v28.1c0,1.1-1,1.6-3,1.6h-2.1C256.1,104.2,255,103.7,255,102.6Z" fill="#53ad51"/><path d="M271.9,85.9c0-12.4,4.6-18.6,13.7-18.6,4.4,0,7.8,1.5,10.1,4.5s3.5,7.7,3.5,14.1S298,97,295.7,100s-5.7,4.6-10.1,4.6C276.5,104.6,271.9,98.3,271.9,85.9Zm16.7,10.8a6.7,6.7,0,0,0,1.8-3.6,43,43,0,0,0,.5-7.2,32.1,32.1,0,0,0-.5-7.1,6.7,6.7,0,0,0-1.8-3.6,4.1,4.1,0,0,0-3-1.1,4.4,4.4,0,0,0-3,1.1,6.7,6.7,0,0,0-1.8,3.6,32.8,32.8,0,0,0-.6,7.1,32.8,32.8,0,0,0,.6,7.1,6.7,6.7,0,0,0,1.8,3.7,4.4,4.4,0,0,0,3,1A4,4,0,0,0,288.6,96.7Z" fill="#53ad51"/><path d="M304,104.2V69.8c0-.8.1-1.3.5-1.6a1.7,1.7,0,0,1,1.5-.5h8.7a12.7,12.7,0,0,1,7.8,2.3c1.9,1.6,2.9,4.3,2.9,7.9s-1.7,7-5,8.8v.2a7,7,0,0,1,2.1,2.1,11.5,11.5,0,0,1,1.4,3.2l3.1,10v.6c0,.9-1,1.4-3.2,1.4h-1.8c-1.9,0-2.9-.5-3.1-1.4l-2.8-9.9a3.4,3.4,0,0,0-1.1-1.6,3.1,3.1,0,0,0-1.9-.5H312v11.8c0,1.1-1.1,1.6-3.1,1.6H304Zm10.9-21a2.6,2.6,0,0,0,2-1.1,6.3,6.3,0,0,0,.8-3.4,5.6,5.6,0,0,0-.8-3.2,2.7,2.7,0,0,0-2.2-1H312v8.7Z" fill="#53ad51"/><path d="M81.3,74.3a12.7,12.7,0,0,0-.6-2.8c-.3-1-.6-2-1-3-3.2-7.9-9.9-14.4-18.5-18a10,10,0,0,1-5.6-5,.4.4,0,0,1-.1-.3c-.1-.4-.1-.8-.2-1.2a.6.6,0,0,1,.1-.4c.7-1.6,5-2.7,9.4-.9h0a11.8,11.8,0,0,0,4.6.9A11.9,11.9,0,0,0,81.4,32a11.7,11.7,0,0,0-8.5-11.2c-16-6-33.4,0-39.4,13.6a25.4,25.4,0,0,0,0,19.7c3.2,7.9,9.9,14.4,18.5,18a10,10,0,0,1,5.6,5c0,.1.1.3.1.4s.1.4.2.5a3.1,3.1,0,0,1-.1,1,3.5,3.5,0,0,1-2.3,1.5,11.1,11.1,0,0,1-6.9-.6,12.9,12.9,0,0,0-4.8-1,11.7,11.7,0,0,0-3.5,22.9,37.2,37.2,0,0,0,12.8,2.4,32.4,32.4,0,0,0,8.9-1.3A26.5,26.5,0,0,0,79.6,88.2,24.5,24.5,0,0,0,81.3,74.3ZM64.7,76.5v-.3c0-.3-.1-.6-.1-.9a4.8,4.8,0,0,1,4.9-4.6A4.9,4.9,0,0,1,74,73.5l.3,1.6a.3.3,0,0,0,.1.2,4.8,4.8,0,0,1-5,4.7A4.8,4.8,0,0,1,64.7,76.5ZM48.5,46.4a4.8,4.8,0,0,1-4.9,4.7,4.9,4.9,0,0,1-4.8-3.7V47a1.3,1.3,0,0,1-.1-.6,4.8,4.8,0,0,1,4.9-4.7,4.7,4.7,0,0,1,4.7,3.4c.1.4.1.8.2,1.2ZM71.3,27.7a4.4,4.4,0,0,1,2.6,2.6,4.3,4.3,0,0,1,0,3.5,5,5,0,0,1-6.4,2.5,4.6,4.6,0,0,1-3-4.3,4.8,4.8,0,0,1,4.9-4.7l1.3.2ZM59.6,25.5A11.2,11.2,0,0,0,57.5,32a15.4,15.4,0,0,0,.4,3,12.3,12.3,0,0,0-6.4,2.6,12.2,12.2,0,0,0-7.9-2.9l-2.4.2C44.8,29,51.8,25.6,59.6,25.5Zm-5,40.1A28.2,28.2,0,0,1,44.1,58,11.6,11.6,0,0,0,53,53.5,19.8,19.8,0,0,0,58.5,57a29.9,29.9,0,0,1,9.9,6.7,11.7,11.7,0,0,0-8.7,5A18.8,18.8,0,0,0,54.6,65.6ZM41.9,94.9a4.6,4.6,0,0,1-2.7-2.6,4.7,4.7,0,0,1,.1-3.5l.3-.6h0l.4-.5c0-.1.1-.1.1-.2l.4-.3.2-.2.8-.5h.3l.4-.2h1.6a6.5,6.5,0,0,1,1.9.4c.1,0,.1,0,.1.1a4.6,4.6,0,0,1,2.9,4.2,4.8,4.8,0,0,1-4.9,4.7l-1.5-.2Zm18.2,1.3a22.5,22.5,0,0,1-6.4.9,11.1,11.1,0,0,0,2-6.5,10.3,10.3,0,0,0-.4-3,7.8,7.8,0,0,0,2.1-.4,11.5,11.5,0,0,0,4.8-2.6A12,12,0,0,0,69.4,87a11.2,11.2,0,0,0,3.2-.4A19.9,19.9,0,0,1,60.1,96.2Z" fill="#0a7bc1"/><path d="M21.5,64.8H3.5a3.5,3.5,0,0,1,0-7h18a3.5,3.5,0,0,1,0,7Z" fill="#53ad51"/><path d="M56.6,12a3.5,3.5,0,0,1-3.5-3.5v-5a3.5,3.5,0,0,1,7,0v5A3.5,3.5,0,0,1,56.6,12Z" fill="#53ad51"/><path d="M56.6,122.5a3.5,3.5,0,0,1-3.5-3.5v-5a3.5,3.5,0,0,1,7,0v5A3.5,3.5,0,0,1,56.6,122.5Z" fill="#53ad51"/><path d="M109.7,64.8h-18a3.5,3.5,0,0,1,0-7h18a3.5,3.5,0,0,1,0,7Z" fill="#53ad51"/></svg>