<?xml version="1.0" standalone="no"?>
<!DOCTYPE svg PUBLIC "-//W3C//DTD SVG 20010904//EN"
 "http://www.w3.org/TR/2001/REC-SVG-20010904/DTD/svg10.dtd">
<svg version="1.0" xmlns="http://www.w3.org/2000/svg"
 width="311.000000pt" height="317.000000pt" viewBox="0 0 311.000000 317.000000"
 preserveAspectRatio="xMidYMid meet">

<g transform="translate(0.000000,317.000000) scale(0.100000,-0.100000)"
fill="#f7c97c" stroke="none">
<path fill="#f7c97c" d="M2273 3112 c-92 -33 -170 -110 -195 -194 -6 -21 -13 -38 -16 -38 -2
0 -79 -7 -171 -15 -91 -8 -283 -23 -426 -35 -143 -11 -274 -22 -292 -24 -29
-4 -34 0 -57 39 -103 176 -354 207 -499 62 -61 -61 -91 -137 -91 -227 0 -87
22 -145 78 -207 l35 -40 -141 -355 -141 -356 -55 -6 c-112 -13 -209 -82 -259
-185 -24 -47 -28 -69 -28 -136 0 -68 5 -88 30 -138 32 -64 81 -114 147 -149
36 -19 58 -23 138 -23 87 0 100 3 149 30 90 50 153 141 166 241 l7 49 181 60
c202 67 227 82 227 142 0 46 -19 76 -59 93 -27 11 -48 6 -220 -51 l-191 -64
-29 30 -30 30 142 356 141 355 64 10 63 10 106 -151 c140 -199 146 -205 200
-205 58 0 93 33 93 86 0 30 -15 58 -82 153 -45 64 -100 141 -121 172 l-38 56
28 59 c15 32 28 60 29 62 1 2 208 21 461 42 422 36 459 38 471 23 6 -9 12 -22
12 -27 -1 -6 -96 -119 -211 -251 -116 -132 -218 -255 -226 -273 -12 -30 -12
-37 4 -70 21 -44 71 -65 114 -50 17 6 111 106 245 259 198 228 220 250 243
245 14 -3 49 -9 76 -12 l50 -6 84 -224 83 -224 -32 -36 c-17 -20 -41 -56 -52
-80 l-22 -43 -254 -3 -254 -3 -24 -28 c-34 -40 -32 -90 5 -128 l29 -29 245 0
245 0 30 -53 c63 -112 160 -171 282 -171 92 0 148 23 219 89 69 64 95 128 96
230 0 69 -4 88 -29 138 -51 100 -143 165 -246 174 l-57 5 -85 227 -85 226 33
35 c120 130 117 318 -8 447 -79 81 -218 113 -325 75z m151 -186 c51 -21 76
-60 76 -118 0 -43 -5 -55 -33 -83 -43 -43 -79 -52 -131 -34 -106 37 -114 190
-13 234 41 18 60 18 101 1z m-1513 -139 c67 -45 76 -144 18 -198 -69 -65 -179
-34 -210 58 -9 28 -8 43 6 78 30 80 117 109 186 62z m1917 -897 c34 -21 62
-72 62 -113 0 -36 -40 -90 -84 -111 -32 -16 -44 -17 -76 -7 -46 14 -87 59 -95
105 -14 72 49 146 125 146 19 0 50 -9 68 -20z m-2454 -374 c97 -40 111 -173
24 -226 -85 -52 -198 12 -198 113 0 35 40 89 80 109 42 22 51 22 94 4z"/>
<path fill="#f7c97c" d="M1448 1966 c-60 -16 -113 -57 -141 -109 -21 -41 -22 -52 -25 -369 -2
-181 -5 -328 -6 -328 -2 0 -25 10 -52 22 -38 17 -68 22 -134 22 -141 1 -227
-53 -246 -152 -11 -57 12 -106 86 -186 73 -79 111 -145 165 -286 119 -313 270
-478 472 -520 93 -20 381 -8 473 19 205 60 341 195 385 382 11 49 15 129 15
340 l0 275 -27 55 c-34 65 -94 107 -169 115 -47 6 -51 9 -75 52 -36 69 -103
107 -188 107 -55 0 -69 4 -88 23 -31 31 -100 62 -139 62 l-32 0 -4 163 c-3
144 -6 167 -26 205 -26 48 -88 98 -135 107 -18 4 -39 8 -47 10 -8 2 -36 -2
-62 -9z m72 -205 c6 -13 10 -149 10 -376 l0 -356 26 -24 c18 -17 39 -25 61
-25 81 0 103 42 103 200 0 110 0 111 23 108 22 -3 22 -5 25 -169 2 -165 3
-167 29 -193 34 -35 91 -36 130 -2 28 24 28 26 31 156 4 128 4 131 25 128 21
-3 22 -7 25 -168 2 -163 3 -165 29 -192 35 -37 90 -38 130 -4 26 23 28 30 32
116 3 87 4 91 25 88 21 -3 21 -6 24 -248 4 -314 -3 -347 -92 -436 -92 -92
-196 -124 -406 -124 -137 0 -170 6 -232 44 -95 57 -170 171 -252 385 -52 133
-102 226 -159 287 -56 62 -49 75 31 53 37 -10 63 -29 125 -91 72 -71 82 -78
118 -78 30 0 46 6 64 26 l25 27 0 421 c0 232 3 431 6 444 8 27 30 29 44 3z"/>
</g>
</svg>
