<?xml version="1.0" encoding="UTF-8"?>
<svg id="Layer_1" xmlns="http://www.w3.org/2000/svg" version="1.1" viewBox="0 0 160 160">
  <!-- Generator: Adobe Illustrator 29.4.0, SVG Export Plug-In . SVG Version: 2.1.0 Build 152)  -->
  <defs>
    <style>
      .st0, .st1 {
        fill: #2eb1b5;
      }

      .st2 {
        letter-spacing: 0em;
      }

      .st3 {
        fill: #2e4c9a;
      }

      .st1 {
        letter-spacing: 0em;
      }

      .st4 {
        font-family: FranklinGothic-Medium, 'Franklin Gothic Medium';
        font-size: 18px;
        font-weight: 500;
      }
    </style>
  </defs>
  <text class="st4" transform="translate(32.95 110.82) scale(1.12 1)"><tspan class="st3" x="0" y="0">VLIZ</tspan><tspan class="st2" x="33.09" y="0"> </tspan><tspan class="st1" x="37.59" y="0">DATA</tspan></text>
  <path class="st0" d="M83.22,55.9c-2.64.24-4.58,2.57-4.34,5.21.05.58.22,1.12.46,1.62l-7.66,6.3c-1.2-.94-2.82-1.3-4.39-.81-.56.17-1.05.45-1.49.79l-7.82-6.22c.47-1.03.6-2.23.23-3.4-.44-1.4-1.47-2.44-2.72-2.97-.03-.01-.06-.03-.09-.04-.23-.09-.47-.17-.72-.22-.09-.02-.18-.04-.27-.05-.2-.03-.39-.05-.59-.06-.08,0-.15-.02-.23-.02s-.15.02-.23.02c-.12,0-.25.02-.37.04-.24.03-.48.08-.71.14-.02,0-.04,0-.06.01-.02,0-.04.02-.05.02-1.95.61-3.37,2.41-3.37,4.55,0,.58.12,1.14.31,1.65l-8.26,5.63c-.85-.76-1.95-1.23-3.18-1.23-2.65,0-4.79,2.15-4.79,4.79s2.15,4.79,4.79,4.79,4.79-2.15,4.79-4.79c0-.58-.12-1.14-.31-1.65l8.26-5.63c.06.06.14.1.21.15.03.02.05.04.08.06.21.16.42.3.65.43.05.03.1.05.16.08.21.1.42.19.65.27.08.03.16.05.24.07.19.05.39.09.59.12.13.02.26.03.4.04.07,0,.14.02.22.02s.14-.02.21-.02c.21,0,.41-.03.62-.06.09-.02.18-.03.27-.05.13-.03.25-.04.38-.08.13-.04.24-.1.36-.15.02,0,.04-.02.06-.03.27-.12.53-.26.77-.42,0,0,.01,0,.02-.01.09-.06.19-.11.27-.18l7.82,6.22c-.47,1.03-.6,2.23-.23,3.4.08.26.2.51.32.74.84,1.77,2.69,2.92,4.75,2.73,2.64-.24,4.58-2.57,4.34-5.21-.03-.37-.13-.71-.24-1.05,0-.02,0-.04-.01-.06-.03-.1-.08-.19-.12-.28-.03-.07-.05-.15-.09-.22l7.72-6.35c.91.68,2.06,1.05,3.28.94,2.64-.24,4.58-2.57,4.34-5.21-.24-2.64-2.57-4.58-5.21-4.34Z"/>
  <path class="st0" d="M84.19,73.75c-2.64.24-4.58,2.57-4.34,5.21.05.58.22,1.12.46,1.62l-7.66,6.3c-1.2-.94-2.82-1.3-4.39-.81-.56.17-1.05.45-1.49.79l-7.82-6.22c.47-1.03.6-2.23.23-3.4-.44-1.4-1.47-2.44-2.72-2.97-.03-.01-.06-.03-.09-.04-.23-.09-.47-.17-.72-.22-.09-.02-.18-.04-.27-.05-.2-.03-.39-.05-.59-.06-.08,0-.15-.02-.23-.02s-.15.02-.23.02c-.12,0-.25.02-.37.04-.24.03-.48.08-.71.14-.02,0-.04,0-.06.01-.02,0-.04.02-.05.02-1.95.61-3.37,2.41-3.37,4.55,0,.58.12,1.14.31,1.65l-8.26,5.63c-.85-.76-1.95-1.23-3.18-1.23-2.65,0-4.79,2.15-4.79,4.79s2.15,4.79,4.79,4.79,4.79-2.15,4.79-4.79c0-.58-.12-1.14-.31-1.65l8.26-5.63c.06.06.14.1.21.15.03.02.05.04.08.06.21.16.42.3.65.43.05.03.1.05.16.08.21.1.42.19.65.27.08.03.16.05.24.07.19.05.39.09.59.12.13.02.26.03.4.04.07,0,.14.02.22.02s.14-.02.21-.02c.21,0,.41-.03.62-.06.09-.02.18-.03.27-.05.13-.03.25-.04.38-.08.13-.04.24-.1.36-.15.02,0,.04-.02.06-.03.27-.12.53-.26.77-.42,0,0,.01,0,.02-.01.09-.06.19-.11.27-.18l7.82,6.22c-.47,1.03-.6,2.23-.23,3.4.08.26.2.51.32.74.84,1.77,2.69,2.92,4.75,2.73,2.64-.24,4.58-2.57,4.34-5.21-.03-.37-.13-.71-.24-1.05,0-.02,0-.04-.01-.06-.03-.1-.08-.19-.12-.28-.03-.07-.05-.15-.09-.22l7.72-6.35c.91.68,2.06,1.05,3.28.94,2.64-.24,4.58-2.57,4.34-5.21-.24-2.64-2.57-4.58-5.21-4.34Z"/>
  <path class="st0" d="M69.67,77.9c2.63-.32,4.5-2.71,4.18-5.34-.07-.58-.26-1.11-.51-1.6l7.46-6.53c1.23.9,2.86,1.21,4.41.68.55-.19,1.03-.48,1.46-.83l8.01,5.98c-.44,1.05-.53,2.25-.13,3.41.48,1.39,1.54,2.4,2.81,2.89.03.01.06.02.09.03.24.09.48.15.73.2.09.02.18.03.27.05.2.03.39.04.59.04.08,0,.15.02.23.02s.15-.02.23-.03c.12-.01.25-.03.37-.05.24-.04.48-.09.71-.17.02,0,.04,0,.06-.01.02,0,.03-.02.05-.02,1.93-.67,3.29-2.51,3.23-4.65-.02-.58-.15-1.13-.36-1.64l8.09-5.87c.87.73,1.99,1.17,3.21,1.13,2.65-.08,4.73-2.29,4.65-4.94s-2.29-4.73-4.94-4.65-4.73,2.29-4.65,4.94c.02.58.15,1.13.36,1.64l-8.09,5.87c-.07-.06-.14-.1-.21-.15-.03-.02-.05-.04-.08-.06-.21-.15-.43-.29-.67-.41-.05-.03-.11-.05-.16-.07-.21-.1-.43-.18-.66-.25-.08-.02-.16-.04-.24-.06-.19-.05-.39-.08-.59-.1-.13-.01-.26-.02-.4-.03-.07,0-.14-.02-.22-.01s-.14.02-.21.03c-.21.01-.41.04-.62.08-.09.02-.18.04-.27.06-.12.03-.25.05-.37.09-.13.04-.24.11-.36.16-.02,0-.04.02-.06.03-.27.13-.52.27-.76.44,0,0-.01,0-.02.01-.09.06-.18.12-.27.18l-8.01-5.98c.44-1.05.53-2.25.13-3.41-.09-.26-.21-.5-.34-.73-.89-1.74-2.78-2.84-4.83-2.59-2.63.32-4.5,2.71-4.18,5.34.04.37.15.71.27,1.04,0,.02,0,.04.01.06.03.1.09.18.13.28.03.07.06.15.09.22l-7.52,6.58c-.93-.65-2.09-.99-3.3-.84-2.63.32-4.5,2.71-4.18,5.34.32,2.63,2.71,4.5,5.34,4.18Z"/>
</svg>