<?xml version="1.0" encoding="UTF-8" standalone="no"?>
<!-- Created with Inkscape (http://www.inkscape.org/) -->

<svg
   width="200"
   height="160"
   viewBox="0 0 52.916667 42.333335"
   version="1.1"
   id="svg5"
   inkscape:version="1.1.2 (0a00cf5339, 2022-02-04)"
   sodipodi:docname="no-VLIZ_LOGO_OpSci.svg"
   xmlns:inkscape="http://www.inkscape.org/namespaces/inkscape"
   xmlns:sodipodi="http://sodipodi.sourceforge.net/DTD/sodipodi-0.dtd"
   xmlns="http://www.w3.org/2000/svg"
   xmlns:svg="http://www.w3.org/2000/svg">
  <sodipodi:namedview
     id="namedview7"
     pagecolor="#ffffff"
     bordercolor="#666666"
     borderopacity="1.0"
     inkscape:pageshadow="2"
     inkscape:pageopacity="0.0"
     inkscape:pagecheckerboard="0"
     inkscape:document-units="mm"
     showgrid="false"
     fit-margin-top="0"
     fit-margin-left="0"
     fit-margin-right="0"
     fit-margin-bottom="0"
     units="px"
     width="200px"
     inkscape:zoom="1.5037598"
     inkscape:cx="188.52745"
     inkscape:cy="245.71743"
     inkscape:window-width="1920"
     inkscape:window-height="1016"
     inkscape:window-x="1920"
     inkscape:window-y="27"
     inkscape:window-maximized="1"
     inkscape:current-layer="text4541" />
  <defs
     id="defs2" />
  <g
     inkscape:label="Layer 1"
     inkscape:groupmode="layer"
     id="layer1"
     transform="translate(-21.506029,-29.851269)">
    <g
       id="g885"
       transform="matrix(0.26458333,0,0,0.26458333,22.109203,29.851147)">
      <g
         id="g905">
        <g
           aria-label="open science"
           id="text4541"
           style="font-size:29.6246px;line-height:1.25">
          <path
             d="m 29.075076,62.830409 q -5.231421,0 -8.271297,4.100315 -3.0399,4.064954 -3.0399,11.169783 0,7.10483 3.004542,11.205143 3.039875,4.064954 8.306655,4.064954 5.196061,0 8.235961,-4.100313 3.039876,-4.10029 3.039876,-11.169784 0,-7.034135 -3.039876,-11.13445 -3.0399,-4.135648 -8.235961,-4.135648 z m 0,-5.514197 q 8.48338,0 13.325969,5.514197 4.842614,5.514198 4.842614,15.270098 0,9.720539 -4.842614,15.270097 -4.842589,5.514196 -13.325969,5.514196 -8.518738,0 -13.361329,-5.514196 -4.807254,-5.549558 -4.807254,-15.270097 0,-9.7559 4.807254,-15.270098 4.842591,-5.514197 13.361329,-5.514197 z"
             style="fill:#65c9cd;stroke-width:1"
             id="path831" />
          <path
             d="M 64.316472,91.921359 V 112.91774 H 57.777196 V 58.270597 h 6.539276 v 6.009056 q 2.050157,-3.534735 5.160727,-5.231421 3.145928,-1.73202 7.493659,-1.73202 7.210883,0 11.700003,5.72628 4.524478,5.726304 4.524478,15.058015 0,9.331734 -4.524478,15.058014 -4.48912,5.726279 -11.700003,5.726279 -4.347731,0 -7.493659,-1.696661 -3.11057,-1.732044 -5.160727,-5.26678 z M 86.443981,78.100507 q 0,-7.175524 -2.969206,-11.240478 -2.933823,-4.100314 -8.094548,-4.100314 -5.160727,0 -8.129908,4.100314 -2.933847,4.064954 -2.933847,11.240478 0,7.175524 2.933847,11.275837 2.969181,4.064954 8.129908,4.064954 5.160725,0 8.094548,-4.064954 2.969206,-4.100313 2.969206,-11.275837 z"
             style="fill:#65c9cd;stroke-width:1"
             id="path833" />
          <path
             d="m 137.83916,76.43918 v 3.181264 h -29.90394 q 0.42416,6.716024 4.02961,10.25076 3.6408,3.4994 10.10937,3.4994 3.74682,0 7.24622,-0.919026 3.53475,-0.919049 6.9988,-2.757098 v 6.150445 q -3.4994,1.484603 -7.17554,2.26224 -3.67612,0.777635 -7.4583,0.777635 -9.47312,0 -15.02266,-5.514196 -5.51422,-5.514199 -5.51422,-14.916626 0,-9.72054 5.23142,-15.411486 5.26678,-5.72628 14.17433,-5.72628 7.98854,0 12.61905,5.160727 4.66586,5.125392 4.66586,13.962241 z m -6.50393,-1.908767 q -0.0706,-5.337451 -3.00455,-8.518715 -2.89848,-3.181289 -7.70571,-3.181289 -5.44354,0 -8.73083,3.075236 -3.25197,3.075234 -3.74684,8.660127 z"
             style="fill:#65c9cd;stroke-width:1"
             id="path835" />
          <path
             d="m 181.42256,73.964859 v 23.894864 h -6.50395 V 74.176942 q 0,-5.620227 -2.19155,-8.412686 -2.19152,-2.792458 -6.57461,-2.792458 -5.26678,0 -8.30666,3.358013 -3.03986,3.358011 -3.03986,9.154985 v 22.374927 h -6.53928 V 58.270597 h 6.53928 v 6.150445 q 2.33293,-3.570071 5.47885,-5.33745 3.18127,-1.76738 7.31692,-1.76738 6.82204,0 10.32144,4.241702 3.49942,4.206342 3.49942,12.406945 z"
             style="fill:#65c9cd;stroke-width:1"
             id="path837" />
          <path
             d="m 30.823746,87.013824 v 3.937735 q -1.765195,-0.90522 -3.666173,-1.357829 -1.900979,-0.452625 -3.937741,-0.452625 -3.100406,0 -4.661924,0.950495 -1.538888,0.950481 -1.538888,2.851473 0,1.44835 1.108904,2.285686 1.108905,0.814713 4.458248,1.561527 l 1.425734,0.316827 q 4.435615,0.950497 6.291334,2.693047 1.878347,1.71994 1.878347,4.82035 0,3.53039 -2.806206,5.58977 -2.783576,2.0594 -7.671806,2.0594 -2.036764,0 -4.254571,-0.40735 -2.195177,-0.38473 -4.639293,-1.1768 v -4.29983 q 2.308331,1.19943 4.548769,1.81046 2.24044,0.58839 4.435617,0.58839 2.941991,0 4.52614,-0.99574 1.584148,-1.0184 1.584148,-2.85147 0,-1.69731 -1.154165,-2.60253 -1.131535,-0.90524 -5.001384,-1.74257 l -1.448365,-0.33947 q -3.869848,-0.81469 -5.589781,-2.489366 -1.719934,-1.697309 -1.719934,-4.639288 0,-3.575647 2.534638,-5.5219 2.534639,-1.946237 7.196562,-1.946237 2.308331,0 4.345094,0.339465 2.036762,0.339465 3.756696,1.01838 z"
             style="fill:#354d9b;stroke-width:1;fill-opacity:1"
             id="path839" />
          <path
             d="m 57.052731,87.240128 v 3.892475 q -1.765193,-0.973119 -3.553025,-1.448351 -1.765193,-0.497886 -3.575647,-0.497886 -4.050896,0 -6.291337,2.579906 -2.240441,2.557268 -2.240441,7.196558 0,4.63929 2.240441,7.21919 2.240441,2.55727 6.291337,2.55727 1.810454,0 3.575647,-0.47525 1.787832,-0.49787 3.553025,-1.47099 v 3.84722 q -1.74257,0.81471 -3.620924,1.22206 -1.855715,0.40735 -3.960358,0.40735 -5.725567,0 -9.097548,-3.59827 -3.371965,-3.59829 -3.371965,-9.70858 0,-6.200817 3.394604,-9.753826 3.417226,-3.553025 9.346475,-3.553025 1.923599,0 3.756691,0.407349 1.833093,0.384726 3.553025,1.1768 z"
             style="fill:#354d9b;stroke-width:1;fill-opacity:1"
             id="path841" />
          <path
             d="m 64.294548,86.26701 h 4.16404 v 25.34637 h -4.16404 z m 0,-9.866984 h 4.16404 v 5.272957 h -4.16404 z"
             style="fill:#354d9b;stroke-width:1;fill-opacity:1"
             id="path843" />
          <path
             d="M 98.851631,97.899187 V 99.93595 H 79.706055 q 0.271566,4.29984 2.579907,6.5629 2.330963,2.24044 6.47238,2.24044 2.398847,0 4.639288,-0.58839 2.263064,-0.58841 4.480883,-1.7652 v 3.93774 q -2.240442,0.9505 -4.594043,1.44837 -2.353586,0.49787 -4.775071,0.49787 -6.065032,0 -9.618041,-3.53039 -3.530387,-3.53039 -3.530387,-9.55016 0,-6.223435 3.349343,-9.866982 3.371965,-3.666169 9.07491,-3.666169 5.114535,0 8.079152,3.304082 2.987255,3.281459 2.987255,8.939126 z m -4.164056,-1.222061 q -0.04521,-3.417227 -1.923598,-5.453986 -1.855731,-2.036774 -4.933492,-2.036774 -3.485142,0 -5.589784,1.968875 -2.082036,1.968875 -2.398863,5.544523 z"
             style="fill:#354d9b;stroke-width:1;fill-opacity:1"
             id="path845" />
          <path
             d="m 126.75527,96.315038 v 15.298342 h -4.16404 V 96.450821 q 0,-3.59827 -1.4031,-5.386102 -1.40311,-1.787832 -4.20932,-1.787832 -3.37196,0 -5.3182,2.14992 -1.94625,2.149919 -1.94625,5.861349 v 14.325224 h -4.18668 V 86.26701 h 4.18668 v 3.937735 q 1.49362,-2.285686 3.50776,-3.417226 2.03676,-1.13154 4.68455,-1.13154 4.36774,0 6.60816,2.715689 2.24044,2.693051 2.24044,7.94337 z"
             style="fill:#354d9b;stroke-width:1;fill-opacity:1"
             id="path847" />
          <path
             d="m 153.30107,87.240128 v 3.892475 q -1.76519,-0.973119 -3.55301,-1.448351 -1.76521,-0.497886 -3.57566,-0.497886 -4.0509,0 -6.29132,2.579906 -2.24044,2.557268 -2.24044,7.196558 0,4.63929 2.24044,7.21919 2.24042,2.55727 6.29132,2.55727 1.81045,0 3.57566,-0.47525 1.78782,-0.49787 3.55301,-1.47099 v 3.84722 q -1.74255,0.81471 -3.62091,1.22206 -1.85571,0.40735 -3.96037,0.40735 -5.72557,0 -9.09753,-3.59827 -3.37198,-3.59829 -3.37198,-9.70858 0,-6.200817 3.3946,-9.753826 3.41724,-3.553025 9.34648,-3.553025 1.92361,0 3.7567,0.407349 1.83308,0.384726 3.55301,1.1768 z"
             style="fill:#354d9b;stroke-width:1;fill-opacity:1"
             id="path849" />
          <path
             d="m 182.22311,97.899187 v 2.036763 h -19.14556 q 0.27157,4.29984 2.57989,6.5629 2.33096,2.24044 6.47238,2.24044 2.39886,0 4.63931,-0.58839 2.26306,-0.58841 4.48086,-1.7652 v 3.93774 q -2.24044,0.9505 -4.59403,1.44837 -2.35358,0.49787 -4.77507,0.49787 -6.06503,0 -9.61805,-3.53039 -3.53039,-3.53039 -3.53039,-9.55016 0,-6.223435 3.34934,-9.866982 3.37198,-3.666169 9.07491,-3.666169 5.11454,0 8.07917,3.304082 2.98724,3.281459 2.98724,8.939126 z m -4.16404,-1.222061 q -0.0452,-3.417227 -1.92361,-5.453986 -1.85572,-2.036774 -4.9335,-2.036774 -3.48512,0 -5.58978,1.968875 -2.08202,1.968875 -2.39885,5.544523 z"
             style="fill:#354d9b;stroke-width:1;fill-opacity:1"
             id="path851" />
        </g>
      </g>
    </g>
  </g>
</svg>
