<?xml version="1.0" encoding="UTF-8" standalone="no"?>
<!-- Created with Inkscape (http://www.inkscape.org/) -->

<svg
   width="200"
   height="200"
   viewBox="0 0 52.916665 52.916669"
   version="1.1"
   id="svg5"
   xml:space="preserve"
   inkscape:version="1.1.2 (0a00cf5339, 2022-02-04)"
   sodipodi:docname="dmbon-assistant-logo.svg"
   xmlns:inkscape="http://www.inkscape.org/namespaces/inkscape"
   xmlns:sodipodi="http://sodipodi.sourceforge.net/DTD/sodipodi-0.dtd"
   xmlns="http://www.w3.org/2000/svg"
   xmlns:svg="http://www.w3.org/2000/svg"><sodipodi:namedview
     id="namedview7"
     pagecolor="#ffffff"
     bordercolor="#000000"
     borderopacity="0.25"
     inkscape:showpageshadow="2"
     inkscape:pageopacity="0.0"
     inkscape:pagecheckerboard="0"
     inkscape:deskcolor="#d1d1d1"
     inkscape:document-units="mm"
     showgrid="false"
     inkscape:zoom="1.414741"
     inkscape:cx="172.11631"
     inkscape:cy="-66.089836"
     inkscape:window-width="1920"
     inkscape:window-height="1016"
     inkscape:window-x="0"
     inkscape:window-y="27"
     inkscape:window-maximized="1"
     inkscape:current-layer="layer1"
     inkscape:pageshadow="2"
     units="px"
     fit-margin-top="0"
     fit-margin-left="0"
     fit-margin-right="0"
     fit-margin-bottom="0" /><defs
     id="defs2"><rect
       x="132.17967"
       y="-9.188961"
       width="69.97747"
       height="60.788513"
       id="rect26528" /><rect
       x="541.44189"
       y="199.32977"
       width="14.843707"
       height="57.96114"
       id="rect26522" /><inkscape:path-effect
       effect="bspline"
       id="path-effect26237"
       is_visible="true"
       lpeversion="1"
       weight="33.333333"
       steps="2"
       helper_size="0"
       apply_no_weight="true"
       apply_with_weight="true"
       only_selected="false" /><inkscape:path-effect
       effect="bspline"
       id="path-effect26233"
       is_visible="true"
       lpeversion="1"
       weight="33.333333"
       steps="2"
       helper_size="0"
       apply_no_weight="true"
       apply_with_weight="true"
       only_selected="false" /><inkscape:path-effect
       effect="bspline"
       id="path-effect26229"
       is_visible="true"
       lpeversion="1"
       weight="33.333333"
       steps="2"
       helper_size="0"
       apply_no_weight="true"
       apply_with_weight="true"
       only_selected="false" /><inkscape:path-effect
       effect="bspline"
       id="path-effect26225"
       is_visible="true"
       lpeversion="1"
       weight="33.333333"
       steps="2"
       helper_size="0"
       apply_no_weight="true"
       apply_with_weight="true"
       only_selected="false" /><inkscape:path-effect
       effect="bspline"
       id="path-effect26221"
       is_visible="true"
       lpeversion="1"
       weight="33.333333"
       steps="2"
       helper_size="0"
       apply_no_weight="true"
       apply_with_weight="true"
       only_selected="false" /><inkscape:path-effect
       effect="bspline"
       id="path-effect26217"
       is_visible="true"
       lpeversion="1"
       weight="33.333333"
       steps="2"
       helper_size="0"
       apply_no_weight="true"
       apply_with_weight="true"
       only_selected="false" /><rect
       x="308.18362"
       y="62.909042"
       width="5.6547456"
       height="38.876373"
       id="rect26187" /><rect
       x="137.12758"
       y="86.234863"
       width="229.72403"
       height="58.667984"
       id="rect25405" /><linearGradient
       id="linearGradient24467"
       inkscape:swatch="solid"><stop
         style="stop-color:#ffffff;stop-opacity:1;"
         offset="0"
         id="stop24465" /></linearGradient><linearGradient
       id="linearGradient22497"
       inkscape:swatch="gradient"><stop
         style="stop-color:#eef9f9;stop-opacity:1;"
         offset="0"
         id="stop22493" /><stop
         style="stop-color:#eef9f9;stop-opacity:0;"
         offset="1"
         id="stop22495" /></linearGradient><rect
       x="164.47031"
       y="289.42822"
       width="497.66739"
       height="218.7225"
       id="rect19916" /><inkscape:path-effect
       effect="bspline"
       id="path-effect8590"
       is_visible="true"
       lpeversion="1"
       weight="33.333333"
       steps="2"
       helper_size="0"
       apply_no_weight="true"
       apply_with_weight="true"
       only_selected="false" /><inkscape:path-effect
       effect="bspline"
       id="path-effect8586"
       is_visible="true"
       lpeversion="1"
       weight="33.333333"
       steps="2"
       helper_size="0"
       apply_no_weight="true"
       apply_with_weight="true"
       only_selected="false" /><inkscape:path-effect
       effect="bspline"
       id="path-effect8582"
       is_visible="true"
       lpeversion="1"
       weight="33.333333"
       steps="2"
       helper_size="0"
       apply_no_weight="true"
       apply_with_weight="true"
       only_selected="false" /><inkscape:path-effect
       effect="bspline"
       id="path-effect8578"
       is_visible="true"
       lpeversion="1"
       weight="33.333333"
       steps="2"
       helper_size="0"
       apply_no_weight="true"
       apply_with_weight="true"
       only_selected="false" /><inkscape:path-effect
       effect="bspline"
       id="path-effect8574"
       is_visible="true"
       lpeversion="1"
       weight="33.333333"
       steps="2"
       helper_size="0"
       apply_no_weight="true"
       apply_with_weight="true"
       only_selected="false" /><inkscape:path-effect
       effect="bspline"
       id="path-effect6008"
       is_visible="true"
       lpeversion="1"
       weight="33.333333"
       steps="2"
       helper_size="0"
       apply_no_weight="true"
       apply_with_weight="true"
       only_selected="false" /><inkscape:path-effect
       effect="bspline"
       id="path-effect5278"
       is_visible="true"
       lpeversion="1"
       weight="33.333333"
       steps="2"
       helper_size="0"
       apply_no_weight="true"
       apply_with_weight="true"
       only_selected="false" /><inkscape:path-effect
       effect="bspline"
       id="path-effect5274"
       is_visible="true"
       lpeversion="1"
       weight="33.333333"
       steps="2"
       helper_size="0"
       apply_no_weight="true"
       apply_with_weight="true"
       only_selected="false" /><inkscape:path-effect
       effect="bspline"
       id="path-effect4995"
       is_visible="true"
       lpeversion="1"
       weight="33.333333"
       steps="2"
       helper_size="0"
       apply_no_weight="true"
       apply_with_weight="true"
       only_selected="false" /><inkscape:path-effect
       effect="bspline"
       id="path-effect4274"
       is_visible="true"
       lpeversion="1"
       weight="33.333333"
       steps="2"
       helper_size="0"
       apply_no_weight="true"
       apply_with_weight="true"
       only_selected="false" /></defs><g
     inkscape:groupmode="layer"
     id="layer2"
     inkscape:label="Layer 2"
     transform="translate(0.0398339,-0.24474242)" /><g
     inkscape:label="Layer 1"
     inkscape:groupmode="layer"
     id="layer1"
     transform="translate(1.4773029,2.2381586)"><rect
       style="opacity:1;fill:#354d90;fill-opacity:1;fill-rule:nonzero;stroke:#eef9f9;stroke-width:0.247689;stroke-linecap:round;stroke-linejoin:miter;stroke-dasharray:none;stroke-dashoffset:0;stroke-opacity:1;paint-order:markers stroke fill"
       id="rect18060"
       width="52.668976"
       height="52.668976"
       x="-1.3534584"
       y="-2.1143141" /><g
       id="g8624"
       transform="matrix(1.4560951,0,0,1.4561688,-41.433968,-190.16002)"
       style="stroke-width:0.686751"><path
         id="path8572"
         style="opacity:1;fill:#31b7bc;fill-opacity:0;fill-rule:nonzero;stroke:#31b7bc;stroke-width:0.72933;stroke-linecap:round;stroke-linejoin:miter;stroke-dasharray:none;stroke-dashoffset:0;stroke-opacity:1;paint-order:markers stroke fill"
         d="m 45.663707,135.15893 c -0.02865,0.003 -0.09951,0.011 -0.241329,0.0274 -0.28364,0.0327 -0.851121,0.0982 -1.298629,0.19637 -0.447507,0.0982 -0.775143,0.22946 -1.037146,0.40411 -0.262002,0.17465 -0.458155,0.39276 -0.687296,0.57826 -0.229142,0.1855 -0.491043,0.33854 -0.643889,0.57878 -0.152846,0.24024 -0.196386,0.56749 -0.283703,0.84026 -0.08732,0.27276 -0.218246,0.49106 -0.371037,0.74207 -0.152791,0.25101 -0.327535,0.53486 -0.436666,0.79685 -0.109131,0.26199 -0.152919,0.50197 -0.251148,0.75292 -0.09823,0.25096 -0.250897,0.51297 -0.414445,0.64389 -0.163547,0.13092 -0.338303,0.13073 -0.436665,0.29456 -0.09836,0.16383 -0.120085,0.49099 -0.174667,0.85111 -0.05458,0.36012 -0.142076,0.75301 -0.240295,1.02578 -0.09822,0.27276 -0.207457,0.42574 -0.349333,0.62218 -0.141876,0.19644 -0.316159,0.43657 -0.523482,0.64389 -0.207323,0.20732 -0.447683,0.38215 -0.785999,0.61133 -0.338316,0.22919 -0.774655,0.51279 -1.320332,0.85111 -0.545678,0.33833 -1.200468,0.73136 -1.658814,0.98237 -0.458346,0.25101 -0.720517,0.35996 -0.86248,0.46922 -0.141962,0.10927 -0.163622,0.21817 -0.04341,0.38189 0.120215,0.16373 0.381983,0.38229 0.731222,0.51315 0.349238,0.13086 0.785787,0.17461 1.189591,0.34933 0.403804,0.17473 0.775229,0.48023 1.124479,0.73122 0.34925,0.25099 0.676564,0.44743 1.025778,0.73123 0.349213,0.28379 0.720443,0.65462 0.993221,1.03662 0.272777,0.38201 0.447105,0.77518 0.610815,1.13534 0.16371,0.36015 0.316739,0.68745 0.502295,1.02577 0.185556,0.33832 0.403692,0.6876 0.578259,1.09141 0.174568,0.40381 0.305687,0.86226 0.436666,1.26607 0.130979,0.40381 0.261707,0.75302 0.403593,1.10226 0.141886,0.34924 0.294739,0.69801 0.523999,1.00356 0.22926,0.30554 0.534853,0.56773 0.807703,0.78599 0.272849,0.21827 0.512779,0.39298 0.851111,0.54571 0.338331,0.15273 0.775088,0.28369 1.244368,0.38189 0.46928,0.0982 0.971011,0.16358 1.527555,0.11989 0.556545,-0.0437 1.16796,-0.19631 1.626258,-0.39274 0.458297,-0.19644 0.763859,-0.437 1.025777,-0.65526 0.261918,-0.21827 0.47997,-0.41451 0.687296,-0.6873 0.207327,-0.27279 0.403821,-0.62197 0.545704,-1.03663 0.141882,-0.41466 0.229227,-0.89477 0.360184,-1.29863 0.130958,-0.40386 0.305642,-0.73123 0.447518,-1.00407 0.141876,-0.27283 0.250697,-0.49108 0.403593,-0.63304 0.152896,-0.14195 0.34978,-0.20743 0.469739,-0.46922 0.119959,-0.26178 0.163461,-0.72048 0.228926,-1.05885 0.06547,-0.33837 0.152798,-0.55672 0.272852,-0.79685 0.120054,-0.24013 0.272607,-0.50191 0.490926,-0.74207 0.218319,-0.24016 0.502063,-0.45851 0.818555,-0.70952 0.316492,-0.25101 0.665659,-0.53445 1.102258,-0.78548 0.436599,-0.25103 0.960639,-0.46937 1.429887,-0.72037 0.469248,-0.25101 0.883937,-0.53471 1.200444,-0.74207 0.316506,-0.20737 0.534771,-0.33859 0.436665,-0.524 -0.09811,-0.18542 -0.512996,-0.4253 -0.905887,-0.59997 -0.392892,-0.17466 -0.763658,-0.28405 -1.058334,-0.41496 -0.294675,-0.1309 -0.513166,-0.28338 -0.785998,-0.4253 -0.272833,-0.14191 -0.599819,-0.27278 -0.894519,-0.48007 -0.294701,-0.20729 -0.557073,-0.49121 -0.829924,-0.8077 -0.27285,-0.31649 -0.556589,-0.66585 -0.818555,-1.08056 -0.261966,-0.4147 -0.501617,-0.89484 -0.709,-1.38596 -0.207384,-0.49111 -0.382167,-0.9933 -0.611332,-1.52807 -0.229166,-0.53477 -0.513216,-1.10182 -0.775147,-1.63659 -0.261931,-0.53477 -0.501644,-1.03701 -0.807186,-1.51722 -0.305542,-0.48022 -0.676999,-0.93863 -1.135331,-1.25522 -0.458332,-0.31659 -1.003734,-0.4909 -1.516703,-0.57826 -0.512969,-0.0874 -0.993182,-0.0878 -1.17874,-0.0987 -0.185557,-0.0109 -0.07617,-0.0325 -0.0217,-0.0434 0.02723,-0.005 0.04053,-0.008 0.01189,-0.006 z" /><g
         id="g8614"
         style="stroke-width:0.686751"><path
           style="opacity:1;fill:#00ff00;fill-opacity:0.00809715;fill-rule:nonzero;stroke:#31b7bc;stroke-width:0.72933;stroke-linecap:round;stroke-linejoin:miter;stroke-dasharray:none;stroke-dashoffset:0;stroke-opacity:1;paint-order:markers stroke fill"
           d="m 41.664773,136.59245 c -0.354304,0.0308 -1.063155,0.0924 -1.741255,0.27735 -0.6781,0.1849 -1.325301,0.49309 -1.803071,0.81674 -0.477769,0.32364 -0.785959,0.66265 -1.109569,1.01708 -0.323609,0.35443 -0.662614,0.72425 -0.89378,1.17123 -0.231165,0.44698 -0.354441,0.9709 -0.446905,1.32531 -0.09246,0.35442 -0.154101,0.53932 -0.138611,0.77055 0.01549,0.23123 0.107947,0.5086 0.308338,0.84761 0.20039,0.33901 0.508581,0.73966 0.83221,1.10948 0.323628,0.36983 0.662637,0.70884 0.924535,1.10952 0.261898,0.40069 0.446814,0.86297 0.57005,1.30985 0.123237,0.44688 0.184874,0.87834 0.07695,1.41761 -0.10792,0.53926 -0.38529,1.18646 -0.739695,1.74116 -0.354405,0.5547 -0.785874,1.01699 -1.155715,1.41765 -0.369841,0.40066 -0.678026,0.73966 -0.832121,1.01717 -0.154094,0.2775 -0.154094,0.49323 -0.123254,0.83227 0.03084,0.33903 0.09248,0.80132 0.246656,1.23281 0.154178,0.43148 0.400727,0.83213 0.755208,1.21734 0.35448,0.38521 0.816766,0.75504 1.202008,1.07866 0.385241,0.32361 0.69343,0.60098 1.140339,0.84748 0.446908,0.24649 1.032473,0.46222 1.587203,0.57003 0.55473,0.10781 1.078652,0.10781 1.556329,0.0616 0.477677,-0.0463 0.909139,-0.13871 1.386781,-0.35445 0.477642,-0.21574 1.00157,-0.55475 1.525515,-0.87836 0.523944,-0.32361 1.047867,-0.6318 1.587206,-0.97082 0.539339,-0.33902 1.094081,-0.70884 1.525555,-1.00163 0.431473,-0.29279 0.739662,-0.50852 1.109587,-0.64721 0.369926,-0.13868 0.801386,-0.20032 1.202028,-0.27738 0.400642,-0.0771 0.770469,-0.16951 1.21742,-0.15404 0.44695,0.0155 0.970874,0.13875 1.463951,0.16951 0.493078,0.0308 0.95536,-0.0309 1.356037,-0.0617 0.400677,-0.0308 0.739688,-0.0308 1.093972,-0.24653 0.354285,-0.21573 0.724116,-0.64719 1.047708,-1.14027 0.323592,-0.49308 0.600962,-1.04782 0.816706,-1.66417 0.215744,-0.61636 0.369838,-1.29437 0.446909,-2.01861 0.07707,-0.72423 0.07707,-1.49471 0.03086,-2.21896 -0.04621,-0.72425 -0.138668,-1.40227 -0.292722,-2.00324 -0.154055,-0.60097 -0.369791,-1.1249 -0.616304,-1.5718 -0.246513,-0.4469 -0.523884,-0.81673 -0.785848,-1.15575 -0.261964,-0.33902 -0.508516,-0.64721 -0.862922,-0.81686 -0.354406,-0.16966 -0.816688,-0.20049 -1.248198,-0.18511 -0.431509,0.0154 -0.832159,0.077 -1.294451,0.13866 -0.462292,0.0616 -0.986215,0.12328 -1.448474,0.10792 -0.46226,-0.0154 -0.862903,-0.10782 -1.263563,-0.20028 -0.40066,-0.0925 -0.801307,-0.18491 -1.171151,-0.35435 -0.369845,-0.16943 -0.708852,-0.41599 -1.094094,-0.66256 -0.385243,-0.24658 -0.816708,-0.49313 -1.263595,-0.7243 -0.446887,-0.23116 -0.909171,-0.4469 -1.448525,-0.75507 -0.539353,-0.30817 -1.155735,-0.70882 -1.648847,-0.98624 -0.493111,-0.27741 -0.862937,-0.4315 -1.048015,-0.50861 -0.185078,-0.0771 -0.185078,-0.0771 -0.539383,-0.0463 z"
           id="path5276"
           inkscape:path-effect="#path-effect5278"
           inkscape:original-d="m 42.019078,136.56164 c -0.708585,0.0619 -1.417436,0.12354 -2.126551,0.18492 -0.646959,0.30846 -1.294159,0.61665 -1.941634,0.92458 -0.307938,0.33929 -0.616127,0.6783 -0.924589,1.01705 -0.338757,0.37011 -0.677765,0.73993 -1.017045,1.1095 -0.123018,0.52421 -0.246293,1.04813 -0.369835,1.5718 -0.06138,0.18519 -0.123015,0.3701 -0.18492,0.55476 0.09273,0.27764 0.185185,0.55501 0.277379,0.83212 0.308464,0.40093 0.616656,0.80158 0.924586,1.20197 0.339289,0.33929 0.678297,0.6783 1.017048,1.01705 0.185184,0.46256 0.370099,0.92485 0.554752,1.38688 0.0619,0.43175 0.123544,0.86321 0.184917,1.29442 -0.277117,0.64749 -0.554487,1.29469 -0.832128,1.94164 -0.431218,0.46256 -0.862684,0.92485 -1.294423,1.38688 -0.307938,0.33929 -0.616128,0.67829 -0.92459,1.01705 2.65e-4,0.216 2.65e-4,0.43173 0,0.64721 0.06191,0.46256 0.123545,0.92485 0.18492,1.38688 0.246825,0.40093 0.493377,0.80157 0.73967,1.20196 0.462568,0.37011 0.924853,0.73994 1.386882,1.10951 0.308467,0.27765 0.616656,0.55502 0.924586,0.83213 0.585849,0.216 1.171411,0.43174 1.756717,0.64721 0.524209,2.6e-4 1.048131,2.6e-4 1.5718,0 0.43175,-0.0922 0.863214,-0.18465 1.294423,-0.27738 0.524209,-0.33875 1.048131,-0.67777 1.5718,-1.01704 0.524208,-0.30794 1.048131,-0.61613 1.5718,-0.92459 0.555029,-0.36958 1.109771,-0.73941 1.664258,-1.10951 0.308467,-0.21548 0.616656,-0.43121 0.924589,-0.64721 0.431747,-0.0614 0.863211,-0.12301 1.294421,-0.18492 0.370107,-0.0922 0.739936,-0.18465 1.109506,-0.27737 0.524209,0.12354 1.048131,0.24682 1.5718,0.36983 0.462568,-0.0614 0.924854,-0.12301 1.386882,-0.18492 0.339286,2.7e-4 0.678297,2.7e-4 1.017045,0 0.370108,-0.43121 0.739937,-0.86268 1.109507,-1.29442 0.277646,-0.5545 0.555016,-1.10924 0.83213,-1.66426 0.154366,-0.67778 0.308459,-1.35579 0.462294,-2.03409 2.64e-4,-0.77024 2.64e-4,-1.54072 0,-2.31147 -0.0922,-0.67778 -0.184653,-1.3558 -0.277376,-2.03409 -0.215477,-0.52368 -0.43121,-1.04761 -0.647214,-1.5718 -0.277116,-0.36958 -0.554487,-0.73941 -0.832127,-1.10951 -0.246298,-0.30794 -0.49285,-0.61613 -0.739672,-0.92459 -0.462037,-0.0306 -0.924322,-0.0614 -1.38688,-0.0925 -0.400399,0.0619 -0.801047,0.12355 -1.201965,0.18492 -0.523679,0.0619 -1.047602,0.12354 -1.571799,0.18492 -0.4004,-0.0922 -0.801045,-0.18465 -1.201966,-0.27738 -0.400396,-0.0922 -0.801044,-0.18465 -1.201965,-0.27737 -0.338756,-0.2463 -0.677764,-0.49285 -1.017045,-0.73967 -0.431218,-0.2463 -0.862684,-0.49285 -1.294423,-0.73967 -0.46204,-0.21548 -0.924325,-0.43121 -1.386883,-0.64721 -0.616137,-0.4004 -1.232519,-0.80105 -1.849175,-1.20197 -0.369578,-0.15384 -0.739405,-0.30793 -1.109507,-0.46229 z" /><path
           style="opacity:1;fill:#31b7bc;fill-opacity:0;fill-rule:nonzero;stroke:#31b7bc;stroke-width:0.72933;stroke-linecap:round;stroke-linejoin:miter;stroke-dasharray:none;stroke-dashoffset:0;stroke-opacity:1;paint-order:markers stroke fill"
           d="m 50.112909,136.56168 c -0.524007,-9e-5 -1.1404,0.18482 -1.618132,0.35433 -0.477732,0.16951 -0.816739,0.32361 -1.186609,0.53935 -0.36987,0.21575 -0.770517,0.49312 -1.279015,0.77049 -0.508498,0.27737 -1.124877,0.55474 -1.571833,0.84757 -0.446955,0.29282 -0.724326,0.60101 -1.109497,0.84753 -0.38517,0.24653 -0.878273,0.43144 -1.278914,0.57013 -0.400641,0.13869 -0.708841,0.23115 -1.109462,0.29281 -0.400621,0.0617 -0.89372,0.0925 -1.325168,0.0617 -0.431448,-0.0308 -0.801275,-0.12322 -1.279002,-0.1849 -0.477727,-0.0617 -1.063286,-0.0925 -1.494841,-0.0463 -0.431556,0.0462 -0.708927,0.16947 -1.032607,0.44689 -0.32368,0.27742 -0.693506,0.70888 -0.970903,1.14041 -0.277396,0.43153 -0.46231,0.863 -0.662638,1.38695 -0.200327,0.52395 -0.416061,1.14033 -0.53932,1.80301 -0.123259,0.66268 -0.154078,1.37152 -0.154064,1.98793 1.4e-5,0.6164 0.03083,1.14032 0.154152,1.77215 0.123319,0.63183 0.339054,1.37149 0.570273,1.89541 0.23122,0.52392 0.477771,0.83211 0.816825,1.14028 0.339053,0.30816 0.77052,0.61635 1.140365,0.84747 0.369846,0.23112 0.678038,0.38521 1.201951,0.46218 0.523913,0.077 1.263569,0.077 1.910786,0.077 0.647217,0 1.201958,0 1.741333,0.0771 0.539375,0.0771 1.063295,0.23119 1.571819,0.47781 0.508523,0.24662 1.001622,0.58563 1.494749,0.87839 0.493127,0.29277 0.986232,0.53931 1.4177,0.80132 0.431468,0.262 0.801293,0.53937 1.232783,0.78589 0.431491,0.24652 0.924593,0.46225 1.510172,0.67797 0.585578,0.21572 1.2636,0.43145 1.849112,0.47761 0.585512,0.0462 1.078614,-0.0771 1.602505,-0.29287 0.523892,-0.21574 1.078635,-0.52393 1.540886,-0.86292 0.462251,-0.33899 0.83208,-0.70882 1.171073,-1.17108 0.338993,-0.46226 0.647181,-1.017 0.893739,-1.47929 0.246558,-0.46229 0.431468,-0.83211 0.493161,-1.20185 0.06169,-0.36974 5.4e-5,-0.73957 -0.200154,-1.04782 -0.200207,-0.30824 -0.539215,-0.55479 -0.847452,-0.86295 -0.308237,-0.30816 -0.585607,-0.67799 -0.801377,-1.01699 -0.215769,-0.33901 -0.369866,-0.6472 -0.539376,-0.98622 -0.16951,-0.33902 -0.354424,-0.70885 -0.416161,-1.06333 -0.06174,-0.35449 -1e-4,-0.69349 0.07694,-1.00171 0.07704,-0.30823 0.169502,-0.58561 0.323603,-0.90925 0.154101,-0.32364 0.369836,-0.69347 0.585582,-1.03251 0.215746,-0.33903 0.431478,-0.64722 0.693448,-1.01706 0.261971,-0.36984 0.570159,-0.80131 0.78589,-1.1403 0.215731,-0.33899 0.339006,-0.58554 0.323667,-0.97068 -0.01534,-0.38515 -0.169432,-0.90907 -0.3697,-1.34056 -0.200269,-0.43149 -0.446821,-0.7705 -0.677965,-1.0787 -0.231145,-0.3082 -0.446877,-0.58557 -0.662605,-0.84754 -0.215728,-0.26198 -0.431466,-0.50853 -0.677987,-0.69352 -0.246522,-0.18499 -0.523895,-0.30826 -0.847505,-0.43156 -0.32361,-0.1233 -0.69344,-0.24657 -1.094098,-0.40066 -0.400658,-0.15408 -0.832123,-0.339 -1.356131,-0.33909 z"
           id="path6006"
           inkscape:path-effect="#path-effect6008"
           inkscape:original-d="m 50.205123,136.37672 c -0.616127,0.18518 -1.232519,0.3701 -1.849175,0.55475 -0.338757,0.15437 -0.677767,0.30846 -1.017045,0.4623 -0.400399,0.27764 -0.801047,0.55501 -1.201965,0.83213 -0.616141,0.27764 -1.232519,0.55501 -1.849176,0.83212 -0.277119,0.30847 -0.55449,0.61666 -0.83213,0.92459 -0.492858,0.18519 -0.985962,0.3701 -1.479341,0.55475 -0.307935,0.0927 -0.616127,0.18519 -0.924587,0.27738 -0.49286,0.0311 -0.985961,0.0619 -1.479341,0.0925 -0.369578,-0.0922 -0.739407,-0.18465 -1.109506,-0.27738 -0.585319,-0.0306 -1.170879,-0.0614 -1.756717,-0.0925 -0.277117,0.12355 -0.554487,0.24683 -0.832128,0.36984 -0.369578,0.43175 -0.739407,0.86321 -1.109506,1.29442 -0.184658,0.43175 -0.36957,0.86322 -0.554752,1.29443 -0.215477,0.61666 -0.43121,1.23304 -0.647213,1.84917 -0.03055,0.70913 -0.06137,1.41797 -0.09246,2.12655 0.03109,0.52421 0.06191,1.04813 0.09246,1.5718 0.216006,0.73995 0.431739,1.47961 0.647213,2.21901 0.246825,0.30847 0.493377,0.61666 0.739669,0.92459 0.431747,0.30847 0.863214,0.61666 1.294424,0.92459 0.308467,0.15436 0.616656,0.30846 0.924586,0.46229 0.73995,2.7e-4 1.479606,2.7e-4 2.219013,0 0.555027,2.7e-4 1.109768,2.7e-4 1.664258,0 0.524209,0.15437 1.048131,0.30846 1.5718,0.4623 0.493387,0.33929 0.986491,0.67829 1.479341,1.01705 0.493387,0.24682 0.986491,0.49337 1.479341,0.73966 0.370107,0.27765 0.739934,0.55502 1.109504,0.83214 0.493389,0.216 0.986491,0.43173 1.479341,0.64721 0.678309,0.216 1.356328,0.43174 2.034092,0.64721 0.49339,-0.12302 0.986494,-0.24629 1.479341,-0.36984 0.55503,-0.30794 1.109771,-0.61613 1.664259,-0.92458 0.370107,-0.36958 0.739936,-0.73941 1.109506,-1.10951 0.308467,-0.5545 0.616656,-1.10924 0.924586,-1.66426 0.185188,-0.36958 0.370102,-0.7394 0.554755,-1.10951 -0.06137,-0.36957 -0.123015,-0.7394 -0.184917,-1.1095 -0.33876,-0.2463 -0.677768,-0.49285 -1.017048,-0.73967 -0.277117,-0.36958 -0.554487,-0.73941 -0.832128,-1.10951 -0.153837,-0.30793 -0.307933,-0.61612 -0.462296,-0.92458 -0.184655,-0.36958 -0.36957,-0.73941 -0.554752,-1.10951 0.06191,-0.33876 0.123542,-0.67776 0.184918,-1.01705 0.09273,-0.27711 0.185182,-0.55449 0.277376,-0.83213 0.216005,-0.36957 0.431739,-0.7394 0.647213,-1.1095 0.216006,-0.30794 0.431739,-0.61613 0.64721,-0.92459 0.308467,-0.43122 0.616657,-0.86268 0.924589,-1.29442 0.123545,-0.2463 0.24682,-0.49285 0.369835,-0.73967 -0.153837,-0.52368 -0.307933,-1.0476 -0.462293,-1.5718 -0.246298,-0.33876 -0.49285,-0.67777 -0.739672,-1.01705 -0.215477,-0.27712 -0.43121,-0.55449 -0.647211,-0.83213 -0.215476,-0.24629 -0.43121,-0.49285 -0.647213,-0.73967 -0.277116,-0.12301 -0.554487,-0.24629 -0.832128,-0.36983 -0.369577,-0.12302 -0.739407,-0.2463 -1.109506,-0.36984 -0.431218,-0.18466 -0.862684,-0.36957 -1.294424,-0.55475 z" /><path
           style="opacity:1;fill:#31b7bc;fill-opacity:0;fill-rule:nonzero;stroke:#31b7bc;stroke-width:0.72933;stroke-linecap:round;stroke-linejoin:miter;stroke-dasharray:none;stroke-dashoffset:0;stroke-opacity:1;paint-order:markers stroke fill"
           d="m 51.92677,140.52314 c 0.480201,-0.45837 0.960404,-0.91675 1.287785,-1.28777 0.327381,-0.37102 0.501995,-0.65477 0.676659,-0.9386"
           id="path8576"
           inkscape:path-effect="#path-effect8578"
           inkscape:original-d="m 51.92677,140.52314 c 0.480462,-0.4581 0.96066,-0.91648 1.440593,-1.37511 0.174884,-0.28349 0.349498,-0.56724 0.523851,-0.85126" /><path
           style="opacity:1;fill:#31b7bc;fill-opacity:0;fill-rule:nonzero;stroke:#31b7bc;stroke-width:0.659902;stroke-linecap:round;stroke-linejoin:miter;stroke-dasharray:none;stroke-dashoffset:0;stroke-opacity:1;paint-order:markers stroke fill"
           d="m 37.436448,138.3117 c 0.353399,0.56344 0.706619,1.12659 1.028683,1.63344 0.322063,0.50685 0.612939,0.95735 0.903653,1.4076"
           id="path8580"
           inkscape:path-effect="#path-effect8582"
           inkscape:original-d="m 37.436448,138.3117 c 0.353475,0.56339 0.706699,1.12654 1.059668,1.68947 0.291149,0.45077 0.58203,0.90127 0.872668,1.35157" /><path
           style="opacity:1;fill:#31b7bc;fill-opacity:0;fill-rule:nonzero;stroke:#31b7bc;stroke-width:0.630938;stroke-linecap:round;stroke-linejoin:miter;stroke-dasharray:none;stroke-dashoffset:0;stroke-opacity:1;paint-order:markers stroke fill"
           d="m 36.886257,155.48195 c 0.467869,-0.13302 0.935556,-0.26599 1.26284,-0.50274 0.327283,-0.23674 0.51438,-0.57735 0.59556,-0.83933 0.08118,-0.26199 0.05638,-0.44554 0.03156,-0.62932"
           id="path8584"
           inkscape:path-effect="#path-effect8586"
           inkscape:original-d="m 36.886257,155.48195 c 0.467949,-0.13274 0.935628,-0.26574 1.403049,-0.39891 0.187364,-0.34041 0.37446,-0.68102 0.561296,-1.02184 -0.02455,-0.18334 -0.04932,-0.36689 -0.07439,-0.55064"
           inkscape:transform-center-x="1.2480926"
           inkscape:transform-center-y="-0.81975072" /><path
           style="opacity:1;fill:#31b7bc;fill-opacity:0;fill-rule:nonzero;stroke:#31b7bc;stroke-width:0.72933;stroke-linecap:round;stroke-linejoin:miter;stroke-dasharray:none;stroke-dashoffset:0;stroke-opacity:1;paint-order:markers stroke fill"
           d="m 51.730327,153.61943 c 0.524132,0.45861 1.047985,0.91698 1.364385,1.33174 0.3164,0.41475 0.425532,0.7858 0.534575,1.15655"
           id="path8588"
           inkscape:path-effect="#path-effect8590"
           inkscape:original-d="m 51.730327,153.61943 c 0.524116,0.45863 1.047967,0.917 1.571554,1.3751 0.109402,0.37134 0.218535,0.74239 0.327406,1.11319" /></g></g><text
       xml:space="preserve"
       transform="matrix(0.26458333,0,0,0.26458333,-1.4374688,-2.4829007)"
       id="text25403"
       style="font-style:normal;font-variant:normal;font-weight:bold;font-stretch:normal;font-size:37.3333px;font-family:Calibri;-inkscape-font-specification:'Calibri Bold';font-variant-ligatures:normal;font-variant-caps:normal;font-variant-numeric:normal;font-variant-east-asian:normal;writing-mode:lr-tb;white-space:pre;shape-inside:url(#rect25405);display:inline;opacity:0.95;fill:#ffffff;fill-opacity:1;fill-rule:evenodd;stroke:#eef9f9;stroke-width:0.234331;stroke-linecap:round;stroke-linejoin:miter;stroke-dasharray:none;stroke-dashoffset:0;stroke-opacity:1;paint-order:markers stroke fill" /><text
       xml:space="preserve"
       transform="matrix(0.26458333,0,0,0.26458333,-1.4374688,-2.4829007)"
       id="text26185"
       style="font-style:normal;font-variant:normal;font-weight:300;font-stretch:normal;font-size:21.3333px;font-family:Calibri;-inkscape-font-specification:'Calibri Light';font-variant-ligatures:normal;font-variant-caps:normal;font-variant-numeric:normal;font-variant-east-asian:normal;writing-mode:lr-tb;white-space:pre;shape-inside:url(#rect26187);display:inline;opacity:0.95;fill:#ffffff;fill-opacity:1;fill-rule:evenodd;stroke:#eef9f9;stroke-width:0.234331;stroke-linecap:round;stroke-linejoin:miter;stroke-dasharray:none;stroke-dashoffset:0;stroke-opacity:1;paint-order:markers stroke fill" /><text
       xml:space="preserve"
       transform="matrix(0.26458333,0,0,0.26458333,-1.4374688,-2.4829007)"
       id="text26520"
       style="font-style:normal;font-variant:normal;font-weight:normal;font-stretch:normal;font-size:35.6201px;line-height:0px;font-family:Calibri;-inkscape-font-specification:'Calibri, Normal';font-variant-ligatures:normal;font-variant-caps:normal;font-variant-numeric:normal;font-variant-east-asian:normal;text-align:start;writing-mode:lr-tb;white-space:pre;shape-inside:url(#rect26522);opacity:0.95;fill:#ffffff;fill-opacity:1;fill-rule:evenodd;stroke:#eef9f9;stroke-width:0.234331;stroke-linecap:round;stroke-linejoin:miter;stroke-dasharray:none;stroke-dashoffset:0;stroke-opacity:1;paint-order:markers stroke fill" /><text
       xml:space="preserve"
       transform="matrix(0.26458333,0,0,0.26458333,-1.4374688,-2.4829007)"
       id="text26526"
       style="font-style:normal;font-variant:normal;font-weight:normal;font-stretch:normal;font-size:35.6201px;line-height:0px;font-family:Calibri;-inkscape-font-specification:'Calibri, Normal';font-variant-ligatures:normal;font-variant-caps:normal;font-variant-numeric:normal;font-variant-east-asian:normal;text-align:start;writing-mode:lr-tb;white-space:pre;shape-inside:url(#rect26528);opacity:0.95;fill:#ffffff;fill-opacity:1;fill-rule:evenodd;stroke:#eef9f9;stroke-width:0.234331;stroke-linecap:round;stroke-linejoin:miter;stroke-dasharray:none;stroke-dashoffset:0;stroke-opacity:1;paint-order:markers stroke fill" /></g></svg>
