<svg class="c-brand-logo__svg" viewBox="0 0 94 38" xmlns="http://www.w3.org/2000/svg" focusable="false">
                <path class="c-brand-logo__part" d="M1.99219 0.119141H17V4.90039H7.05566V8.78516H17V13.334H7.05566V22H1.99219V0.119141ZM25.7324 4.9502V11.2256H26.3301C28.61 11.2145 30.2702 10.9434 31.3105 10.4121C32.3509 9.88086 32.8711 9.07292 32.8711 7.98828C32.8711 6.90365 32.4173 6.12337 31.5098 5.64746C30.6022 5.18262 29.0195 4.9502 26.7617 4.9502H25.7324ZM20.6523 22V0.119141H26.9111C30.5745 0.119141 33.3249 0.711263 35.1621 1.89551C36.9993 3.07975 37.918 4.93359 37.918 7.45703C37.918 9.12826 37.6191 10.5007 37.0215 11.5742C36.4238 12.6478 35.5661 13.5387 34.4482 14.2471C34.8799 15.2321 35.5827 16.123 36.5566 16.9199C37.5306 17.7168 38.5986 18.3643 39.7607 18.8623L39.8271 19.0117L37.5029 22.2988C36.0752 22.2988 34.5534 21.6182 32.9375 20.2568C31.3216 18.8955 30.1595 17.4014 29.4512 15.7744C28.2005 15.9626 26.9609 16.0566 25.7324 16.0566V22H20.6523ZM47.248 4.90039V17.2354H49.373C51.7858 17.2354 53.6839 16.5326 55.0674 15.127C56.1963 13.9759 56.7607 12.598 56.7607 10.9932C56.7718 9.38835 56.069 7.97168 54.6523 6.74316C53.2357 5.51465 51.3929 4.90039 49.124 4.90039H47.248ZM42.168 22V0.119141H50.1533C53.6175 0.119141 56.4232 1.16504 58.5703 3.25684C60.7174 5.34863 61.791 7.91081 61.791 10.9434C61.791 13.987 60.8558 16.5215 58.9854 18.5469C56.8714 20.849 53.9883 22 50.3359 22H42.168ZM70.3408 22H65.2773V0.119141H70.3408L78.5088 13.168V0.119141H83.5723V22H78.5088L70.3408 8.96777V22ZM92.6367 17.4512C93.2012 18.0046 93.4834 18.6797 93.4834 19.4766C93.4834 20.2734 93.2012 20.9486 92.6367 21.502C92.0612 22.0553 91.375 22.332 90.5781 22.332C89.7812 22.332 89.1061 22.0553 88.5527 21.502C87.9993 20.9486 87.7227 20.2734 87.7227 19.4766C87.7227 18.6797 87.9993 18.0046 88.5527 17.4512C89.1061 16.8978 89.7812 16.6211 90.5781 16.6211C91.375 16.6211 92.0612 16.8978 92.6367 17.4512Z"></path>
                <path class="c-brand-logo__part c-brand-logo__part--primary" d="M0.219727 27.3467H2.57812L4.89258 34.063L7.20703 27.3467H9.56543L6.24023 37H3.5376L0.219727 27.3467ZM10.7641 27.3467H13.0053V34.8906H16.997V37H10.7641V27.3467ZM21.1546 33.1768H23.6448L22.3997 29.5439L21.1546 33.1768ZM24.3772 35.2788H20.4295L19.8362 37H17.4705L20.7884 27.3467H24.055L27.3802 37H24.9705L24.3772 35.2788ZM31.611 33.1768H34.1013L32.8562 29.5439L31.611 33.1768ZM34.8337 35.2788H30.8859L30.2927 37H27.927L31.2448 27.3467H34.5114L37.8366 37H35.427L34.8337 35.2788ZM41.3497 37H39.1158V27.3467H41.3497L44.9532 33.1035V27.3467H47.1871V37H44.9532L41.3497 31.2505V37ZM51.3594 29.4561V34.8979H52.2969C53.3613 34.8979 54.1987 34.5879 54.8091 33.9678C55.3071 33.46 55.5562 32.8521 55.5562 32.144C55.561 31.436 55.251 30.811 54.626 30.269C54.001 29.7271 53.188 29.4561 52.187 29.4561H51.3594ZM49.1182 37V27.3467H52.6411C54.1694 27.3467 55.4072 27.8081 56.3545 28.731C57.3018 29.6538 57.7754 30.7842 57.7754 32.1221C57.7754 33.4648 57.3628 34.583 56.5376 35.4766C55.605 36.4922 54.333 37 52.7217 37H49.1182ZM58.9008 27.3467H65.5219V29.4561H61.1347V31.1699H65.5219V33.1768H61.1347V34.8906H65.5219V37H58.9008V27.3467ZM69.4744 29.478V32.2466H69.7381C70.7439 32.2417 71.4764 32.1221 71.9353 31.8877C72.3943 31.6533 72.6238 31.2969 72.6238 30.8184C72.6238 30.3398 72.4236 29.9956 72.0232 29.7856C71.6228 29.5806 70.9246 29.478 69.9285 29.478H69.4744ZM67.2332 37V27.3467H69.9944C71.6106 27.3467 72.824 27.6079 73.6346 28.1304C74.4451 28.6528 74.8504 29.4707 74.8504 30.584C74.8504 31.3213 74.7186 31.9268 74.4549 32.4004C74.1912 32.874 73.8128 33.2671 73.3196 33.5796C73.5101 34.0142 73.8201 34.4072 74.2498 34.7588C74.6795 35.1104 75.1507 35.396 75.6634 35.6157L75.6927 35.6816L74.6673 37.1318C74.0374 37.1318 73.366 36.8315 72.6531 36.231C71.9402 35.6304 71.4275 34.9712 71.115 34.2534C70.5633 34.3364 70.0164 34.3779 69.4744 34.3779V37H67.2332ZM76.8254 27.3467H83.4465V29.4561H79.0593V31.1699H83.4465V33.1768H79.0593V34.8906H83.4465V37H76.8254V27.3467ZM87.4649 37H85.2311V27.3467H87.4649L91.0685 33.1035V27.3467H93.3023V37H91.0685L87.4649 31.2505V37Z"></path>
            </svg>